<svg viewBox="0 0 100 100" xmlns="http://www.w3.org/2000/svg" id="Car-Parking--Streamline-Ux">
  <desc>
    Car Parking Streamline Illustration: https://streamlinehq.com
  </desc>
  <path d="M10 50.838a40 40 0 1 0 80 0 40 40 0 1 0 -80 0Z" fill="#daedf7" stroke="#daedf7" stroke-width="1"></path>
  <path d="M20.319 78.521a22.959 2.084 0 1 0 45.918 0 22.959 2.084 0 1 0 -45.918 0Z" fill="#45413c" opacity=".15" stroke-width="1"></path>
  <path d="m69.104 78.861 0 -44.245 3.712 0 0 44.245" fill="#adc4d9" stroke="#45413c" stroke-linecap="round" stroke-linejoin="round" stroke-width="1"></path>
  <path d="m59.378 9.162 23.163 0 0 29.78 -23.163 0Z" fill="#00b8f0" stroke-width="1"></path>
  <path d="m59.378 9.162 23.163 0 0 29.78 -23.163 0Z" fill="none" stroke="#45413c" stroke-linecap="round" stroke-linejoin="round" stroke-width="1"></path>
  <path d="M64.13 15.667a2.07 2.07 0 0 1 2.244 -2.244h5.09c4.231 0 7.366 2.762 7.366 6.875 0 4.2 -3.25 6.82 -7.192 6.82h-3.193v4.718a2.159 2.159 0 1 1 -4.315 0Zm4.315 7.651h2.935a2.875 2.875 0 0 0 2.961 -3.048 2.877 2.877 0 0 0 -2.961 -3.05h-2.935Z" fill="#ffffff" stroke="#00658a" stroke-linecap="round" stroke-linejoin="round" stroke-width="1"></path>
  <path d="M30.292 56.692h-5.959a1.124 1.124 0 0 1 -1.124 -1.124v-2.474a1.124 1.124 0 0 1 1.124 -1.124h5.959Z" fill="#ff6242" stroke-width="1"></path>
  <path d="M24.39 51.97a1.18 1.18 0 0 0 -1.181 1.18v2.361a1.18 1.18 0 0 1 1.181 -1.18h5.9V51.97Z" fill="#ff6242" stroke-width="1"></path>
  <path d="M30.292 56.692h-5.959a1.124 1.124 0 0 1 -1.124 -1.124v-2.474a1.124 1.124 0 0 1 1.124 -1.124h5.959Z" fill="none" stroke="#45413c" stroke-linecap="round" stroke-linejoin="round" stroke-width="1"></path>
  <path d="M56.265 56.692h5.959a1.124 1.124 0 0 0 1.124 -1.124v-2.474a1.124 1.124 0 0 0 -1.124 -1.124h-5.959Z" fill="#ff6242" stroke-width="1"></path>
  <path d="M62.167 51.97a1.18 1.18 0 0 1 1.181 1.18v2.361a1.18 1.18 0 0 0 -1.181 -1.18h-5.9V51.97Z" fill="#ff6242" stroke-width="1"></path>
  <path d="M56.265 56.692h5.959a1.124 1.124 0 0 0 1.124 -1.124v-2.474a1.124 1.124 0 0 0 -1.124 -1.124h-5.959Z" fill="none" stroke="#45413c" stroke-linecap="round" stroke-linejoin="round" stroke-width="1"></path>
  <path d="M58.626 54.331 55.15 46.51a4.722 4.722 0 0 0 -4.315 -2.8H35.722a4.722 4.722 0 0 0 -4.315 2.8l-3.476 7.821 -6.234 5.2a2.361 2.361 0 0 0 -0.849 1.814V68.5a2.361 2.361 0 0 0 2.361 2.361h40.139a2.361 2.361 0 0 0 2.361 -2.361v-7.16a2.361 2.361 0 0 0 -0.849 -1.814Z" fill="#ff6242" stroke-width="1"></path>
  <path d="M65.709 61.339a2.36 2.36 0 0 0 -0.849 -1.813l-6.234 -5.195 -3.476 -7.821a4.721 4.721 0 0 0 -4.315 -2.8H35.722a4.721 4.721 0 0 0 -4.315 2.8l-3.476 7.821 -6.234 5.2a2.36 2.36 0 0 0 -0.849 1.813v3.542a2.364 2.364 0 0 1 0.849 -1.814l6.234 -5.195 3.476 -7.82a4.722 4.722 0 0 1 4.315 -2.8h15.113a4.722 4.722 0 0 1 4.315 2.805l3.476 7.82 6.234 5.2a2.364 2.364 0 0 1 0.849 1.814Z" fill="#ff6242" stroke-width="1"></path>
  <path d="M58.626 54.331 55.15 46.51a4.722 4.722 0 0 0 -4.315 -2.8H35.722a4.722 4.722 0 0 0 -4.315 2.8l-3.476 7.821 -6.234 5.2a2.361 2.361 0 0 0 -0.849 1.814V68.5a2.361 2.361 0 0 0 2.361 2.361h40.139a2.361 2.361 0 0 0 2.361 -2.361v-7.16a2.361 2.361 0 0 0 -0.849 -1.814Z" fill="none" stroke="#45413c" stroke-linecap="round" stroke-linejoin="round" stroke-width="1"></path>
  <path d="M29.168 77.942h-3.654a1.124 1.124 0 0 1 -1.124 -1.124v-5.959h5.9v5.959a1.124 1.124 0 0 1 -1.122 1.124Z" fill="#87898c" stroke="#45413c" stroke-linecap="round" stroke-linejoin="round" stroke-width="1"></path>
  <path d="M61.043 77.942h-3.654a1.124 1.124 0 0 1 -1.124 -1.124v-5.959h5.9v5.959a1.124 1.124 0 0 1 -1.122 1.124Z" fill="#87898c" stroke="#45413c" stroke-linecap="round" stroke-linejoin="round" stroke-width="1"></path>
  <path d="M63.46 72.039H23.1a2.249 2.249 0 0 1 -2.249 -2.248v-3.655h44.858v3.655a2.249 2.249 0 0 1 -2.249 2.248Z" fill="#daedf7" stroke-width="1"></path>
  <path d="M20.848 66.136h44.861v2.361H20.848z" fill="#ffffff" stroke-width="1"></path>
  <path d="M63.46 72.039H23.1a2.249 2.249 0 0 1 -2.249 -2.248v-3.655h44.858v3.655a2.249 2.249 0 0 1 -2.249 2.248Z" fill="none" stroke="#45413c" stroke-linecap="round" stroke-linejoin="round" stroke-width="1"></path>
  <path d="m37.376 68.498 11.806 0 0 5.903 -11.806 0Z" fill="#ffffff" stroke="#45413c" stroke-linecap="round" stroke-linejoin="round" stroke-width="1"></path>
  <path d="M52.723 66.136H33.834l0.733 -2.933a2.363 2.363 0 0 1 2.291 -1.789H49.7a2.363 2.363 0 0 1 2.29 1.786Z" fill="#87898c" stroke-width="1"></path>
  <path d="M52.723 66.136H33.834l0.733 -2.933a2.363 2.363 0 0 1 2.291 -1.789H49.7a2.363 2.363 0 0 1 2.29 1.786Z" fill="none" stroke="#45413c" stroke-linecap="round" stroke-linejoin="round" stroke-width="1"></path>
  <path d="M27.931 66.136h-7.083v-4.722h3.137a3.541 3.541 0 0 1 3.436 2.686Z" fill="#ffe500" stroke="#45413c" stroke-linecap="round" stroke-linejoin="round" stroke-width="1"></path>
  <path d="M53.643 48.213a3.542 3.542 0 0 0 -3.255 -2.146H36.169a3.542 3.542 0 0 0 -3.255 2.146l-1.994 4.654a1.05 1.05 0 0 0 0.965 1.464h22.787a1.05 1.05 0 0 0 0.965 -1.464Z" fill="#00b8f0" stroke-width="1"></path>
  <path d="M50.362 46.067H36.169a3.541 3.541 0 0 0 -3.255 2.147l-1.994 4.653a1.05 1.05 0 0 0 0.965 1.464H42.1Z" fill="#4acfff" stroke-width="1"></path>
  <path d="M53.643 48.213a3.542 3.542 0 0 0 -3.255 -2.146H36.169a3.542 3.542 0 0 0 -3.255 2.146l-1.994 4.654a1.05 1.05 0 0 0 0.965 1.464h22.787a1.05 1.05 0 0 0 0.965 -1.464Z" fill="none" stroke="#45413c" stroke-linecap="round" stroke-linejoin="round" stroke-width="1"></path>
  <path d="m34.424 63.775 17.709 0" fill="none" stroke="#45413c" stroke-linecap="round" stroke-linejoin="round" stroke-width="1"></path>
  <path d="M58.626 66.136h7.083v-4.722h-3.137a3.541 3.541 0 0 0 -3.436 2.686Z" fill="#ffe500" stroke="#45413c" stroke-linecap="round" stroke-linejoin="round" stroke-width="1"></path>
</svg>